<?xml version="1.0" encoding="utf-8"?>
<!-- Generator: Adobe Illustrator 21.0.2, SVG Export Plug-In . SVG Version: 6.00 Build 0)  -->
<svg version="1.1" id="Calque_1" xmlns="http://www.w3.org/2000/svg" xmlns:xlink="http://www.w3.org/1999/xlink" x="0px" y="0px"
	 viewBox="0 0 112 112" style="enable-background:new 0 0 112 112;" xml:space="preserve">
<style type="text/css">
	.st0{fill:#6081C4;}
</style>
<path class="st0" d="M56,0C25.1,0,0,25.1,0,56c0,30.9,25.1,56,56,56c30.9,0,56-25.1,56-56C112,25.1,87,0,56,0z M70.8,51l-0.5,5.2
	h-9.8c0,14.9,0,33.2,0,33.2H47.2c0,0,0-18.1,0-33.2h-6.6v-5.3v-8h6.6v-6c0-5.4,2.6-13.9,14-13.9l10.3,0v11.4c0,0-6.2,0-7.4,0
	c-1.2,0-2.9,0.6-2.9,3.2v5.3h10.5L70.8,51z"/>
</svg>
