<?xml version="1.0" encoding="utf-8"?>
<!-- Generator: Adobe Illustrator 21.0.2, SVG Export Plug-In . SVG Version: 6.00 Build 0)  -->
<svg version="1.1" id="Calque_1" xmlns="http://www.w3.org/2000/svg" xmlns:xlink="http://www.w3.org/1999/xlink" x="0px" y="0px"
	 viewBox="0 0 112 112" style="enable-background:new 0 0 112 112;" xml:space="preserve">
<style type="text/css">
	.st0{fill:#E62B33;}
</style>
<path class="st0" d="M56,0C25.1,0,0,25.1,0,56c0,30.9,25.1,56,56,56c30.9,0,56-25.1,56-56C112,25.1,86.9,0,56,0z M58.3,71.5
	c-2.9,3.1-6.6,4.6-10.7,5c-8.4,0.9-16.3-3.9-19.4-11.7c-1.3-3.2-1.5-6.6-1-9.8c1.3-7.4,7.1-13.7,15.1-15c5.6-0.9,10.6,0.4,14.9,4.1
	c0.2,0.1,0.3,0.3,0.5,0.3c-1.9,1.9-3.6,3.6-5.4,5.4c-1.3-1.1-2.8-2-4.6-2.4c-5-1.1-10,1.6-12,6.1c-0.4,0.8-0.6,1.6-0.8,2.5
	C33.9,62.3,37.7,68,43.9,69c5,0.8,9.6-1.4,11.1-5.9c0.1-0.3,0.2-0.7,0.3-1.2c-3.3,0-6.5,0-9.8,0c0-2.4,0-4.8,0-7.1
	c0-0.2,0.4-0.4,0.6-0.4c1.1,0,2.3,0,3.4,0c4,0,8,0,12.1,0c0.9,0,1.3,0.2,1.4,1.2C63.7,61.6,62.6,67,58.3,71.5z M85,56.1
	c0,1.2,0,2.3,0,3.6c-2.1,0-4.2,0-6.4,0c0,2.2,0,4.3,0,6.4c-1.6,0-3.1,0-4.7,0c0-2.1,0-4.1,0-6.3c-1.1,0-2,0-3,0
	c-1.1,0-2.3-0.1-3.4-0.1c-0.1-1.2-0.1-2.3-0.2-3.5c0-0.3,0-0.6,0-1.1c2.2,0,4.3,0,6.5,0c0-0.4,0-0.7,0-1.1c0-1.8,0-3.5,0-5.4
	c1.5,0,2.9,0,4.3,0c0.2,0,0.4,0.5,0.4,0.7c0,1.5,0,3.1,0,4.6c0,0.3,0,0.5,0,0.8c0,0.1,0,0.2,0,0.2c0.4,0,0.8,0,1.2,0
	c1.7,0,3.4,0,5.1,0C85,55.3,85,55.7,85,56.1z"/>
</svg>
