<?xml version="1.0" encoding="utf-8"?>
<!-- Generator: Adobe Illustrator 21.0.2, SVG Export Plug-In . SVG Version: 6.00 Build 0)  -->
<svg version="1.1" id="Calque_1" xmlns="http://www.w3.org/2000/svg" xmlns:xlink="http://www.w3.org/1999/xlink" x="0px" y="0px"
	 viewBox="0 0 112 112" style="enable-background:new 0 0 112 112;" xml:space="preserve">
<style type="text/css">
	.st0{fill:#864C2D;}
</style>
<g>
	<path class="st0" d="M74,51.8c0.4,1.6,0.7,3.2,0.7,4.9c0,10-8.1,18.1-18.1,18.1s-18.1-8.1-18.1-18.1c0-1.7,0.2-3.4,0.7-4.9
		c0.2-0.6,0.4-1.3,0.6-1.9h-9.9v3.4v23.7c0,3.5,2.9,6.4,6.4,6.4h40.7c3.5,0,6.4-2.9,6.4-6.4V53.4V50h-9.9
		C73.6,50.6,73.8,51.2,74,51.8z"/>
	<polygon class="st0" points="82,42.5 82,32.7 82,31.2 80.6,31.3 70.8,31.3 70.8,42.5 	"/>
	<path class="st0" d="M56.5,68.5c6.4,0,11.7-5.2,11.7-11.7c0-2.1-0.6-4-1.5-5.7c-0.2-0.4-0.4-0.8-0.7-1.1c-2.1-2.9-5.6-4.9-9.5-4.9
		c-3.9,0-7.3,1.9-9.5,4.9c-0.3,0.4-0.5,0.7-0.7,1.1c-1,1.7-1.5,3.6-1.5,5.7C44.8,63.2,50.1,68.5,56.5,68.5z"/>
	<path class="st0" d="M56.5,0.8c-30.9,0-56,25.1-56,56c0,30.9,25.1,56,56,56c30.9,0,56-25.1,56-56C112.5,25.8,87.5,0.8,56.5,0.8z
		 M89.7,50v5v22.2c0,7.1-5.8,12.8-12.8,12.8H36.2c-7.1,0-12.8-5.8-12.8-12.8V55v-5V36.4c0-7.1,5.8-12.8,12.8-12.8h40.7
		c7.1,0,12.8,5.8,12.8,12.8V50z"/>
</g>
</svg>
