<?xml version="1.0" encoding="utf-8"?>
<!-- Generator: Adobe Illustrator 21.0.2, SVG Export Plug-In . SVG Version: 6.00 Build 0)  -->
<svg version="1.1" id="Calque_1" xmlns="http://www.w3.org/2000/svg" xmlns:xlink="http://www.w3.org/1999/xlink" x="0px" y="0px"
	 viewBox="0 0 112 112" style="enable-background:new 0 0 112 112;" xml:space="preserve">
<style type="text/css">
	.st0{fill:#43BDEF;}
</style>
<path class="st0" d="M56.7,1c-30.9,0-56,25.1-56,56c0,30.9,25.1,56,56,56s56-25.1,56-56C112.8,26.1,87.7,1,56.7,1z M83.1,46.8
	c0,0.6,0,1.2,0,1.7c0,2.7-0.3,5.4-0.9,8.1c-3.5,15.3-16.5,30-37.8,30c-7.7,0-14.8-2.2-20.9-6c1.1,0.1,2.2,0.2,3.3,0.2
	c6.4,0,12.2-2.1,16.9-5.7c-6-0.1-11-4-12.7-9.3c0.8,0.2,1.7,0.2,2.6,0.2c1.2,0,2.4-0.2,3.6-0.5c-4.6-0.9-8.3-4.1-10-8.3
	c-0.6-1.5-0.9-3.1-0.9-4.9c0-0.1,0-0.1,0-0.2c1.8,1,3.9,1.6,6.2,1.7c-3.6-2.4-6.1-6.5-6.1-11.2c0-2.5,0.7-4.8,1.8-6.7
	c6.7,8.1,16.7,13.4,28.1,14c-0.2-1-0.3-2-0.3-3.1c0-7.4,6.1-13.4,13.6-13.4c3.9,0,7.5,1.6,9.9,4.2c3.1-0.6,6-1.7,8.6-3.3
	c-1,3.1-3.2,5.8-6,7.4c2.8-0.3,5.4-1,7.8-2.1C88.1,42.6,85.8,45,83.1,46.8z"/>
</svg>
